<?xml version="1.0" encoding="utf-8"?>
<svg xmlns="http://www.w3.org/2000/svg"
  style="margin: auto; background: rgb(255, 251, 243); display: block; shape-rendering: auto;" width="271" height="88"
  preserveAspectRatio="xMidYMid">
  <style type="text/css">
    text {
      text-anchor: middle;
      font-size: 45px;
      opacity: 0;
    }
  </style>
  <g style="transform-origin: 135.5px 44px; transform: scale(0.5625);">
    <g transform="translate(135.5,44)">
      <g transform="translate(0,0)">
        <g class="path"
          style="transform: scale(1); transform-origin: -470.8px -1.15347px; animation: 1s linear -0.634615s infinite normal forwards running beat-b097d979-0547-49bc-aab4-ddbc0a1d8439;">
          <path
            d="M50.24-47.60L50.24-47.60L50.24-47.60Q58-47.60 63.52-50.64L63.52-50.64L64.40-49.20L64.40-49.20Q59.20-46.16 52.96-45.92L52.96-45.92L52.96-45.92Q47.92-41.12 44.44-29.92L44.44-29.92L44.44-29.92Q40.96-18.72 40.96-6.08L40.96-6.08L40.96-6.08Q40.96 1.68 43.80 4.88L43.80 4.88L43.80 4.88Q46.64 8.08 50.48 8.08L50.48 8.08L50.48 8.08Q53.04 8.08 55.44 6.92L55.44 6.92L55.44 6.92Q57.84 5.76 59.16 4.64L59.16 4.64L59.16 4.64Q60.48 3.52 62.64 1.36L62.64 1.36L62.64 1.36Q61.36-2.48 61.36-10.60L61.36-10.60L61.36-10.60Q61.36-18.72 64.16-28.12L64.16-28.12L64.16-28.12Q66.96-37.52 71.60-43.52L71.60-43.52L71.60-43.52Q76.24-49.52 81.20-49.52L81.20-49.52L81.20-49.52Q83.60-49.52 84.84-48.24L84.84-48.24L84.84-48.24Q86.08-46.96 86.08-43.60L86.08-43.60L86.08-43.60Q86.08-36.80 81.72-25.52L81.72-25.52L81.72-25.52Q77.36-14.24 70.48-4.96L70.48-4.96L70.48-4.96Q71.20 1.20 74.40 4.16L74.40 4.16L74.40 4.16Q77.60 7.12 82.56 7.12L82.56 7.12L82.56 7.12Q91.68 7.12 98.96-10.32L98.96-10.32L98.96-10.32Q104.56-23.76 104.56-37.84L104.56-37.84L104.56-37.84Q104.56-51.92 99.12-57.36L99.12-57.36L100.32-58.56L100.32-58.56Q106.32-52.56 106.32-37.60L106.32-37.60L106.32-37.60Q106.32-23.68 100.64-9.60L100.64-9.60L100.64-9.60Q91.68 12 76.24 12L76.24 12L76.24 12Q68.32 12 64.64 5.68L64.64 5.68L64.64 5.68Q63.68 4.08 63.28 3.28L63.28 3.28L63.28 3.28Q54.80 12 44.56 12L44.56 12L44.56 12Q37.92 12 34.68 7.56L34.68 7.56L34.68 7.56Q31.44 3.12 31.44-3.20L31.44-3.20L31.44-3.20Q31.44-9.52 33.08-15.80L33.08-15.80L33.08-15.80Q34.72-22.08 36.88-26.56L36.88-26.56L36.88-26.56Q39.04-31.04 42.08-35.36L42.08-35.36L42.08-35.36Q46.24-41.52 50.64-45.92L50.64-45.92L50.64-45.92Q48-45.92 43.76-46.48L43.76-46.48L43.76-46.48Q34.88-46.96 34.24-46.96L34.24-46.96L34.24-46.96Q23.04-46.96 16.64-41.32L16.64-41.32L16.64-41.32Q10.24-35.68 10.24-25.76L10.24-25.76L10.24-25.76Q10.24-21.12 12.40-17.04L12.40-17.04L12.40-17.04Q13.52-14.88 17.28-12.08L17.28-12.08L17.28-12.08Q18.08-11.44 19.84-10.72L19.84-10.72L19.84-10.72Q21.60-10 21.68-10L21.68-10L23.04-9.60L22.80-7.92L22.80-7.92Q21.28-7.92 18.40-9.52L18.40-9.52L18.40-9.52Q15.52-11.12 13.48-12.92L13.48-12.92L13.48-12.92Q11.44-14.72 9.96-18.12L9.96-18.12L9.96-18.12Q8.48-21.52 8.48-25.76L8.48-25.76L8.48-25.76Q8.48-36.32 15.44-42.52L15.44-42.52L15.44-42.52Q22.40-48.72 34.24-48.72L34.24-48.72L34.24-48.72Q39.04-48.72 43.04-48.16L43.04-48.16L43.04-48.16Q47.04-47.60 50.24-47.60zM70.24-8.96L70.24-8.96L70.24-7.76L70.24-7.76Q71.04-8.88 72.32-10.96L72.32-10.96L72.32-10.96Q77.52-19.04 80.88-28.32L80.88-28.32L80.88-28.32Q84.24-37.60 84.24-43.60L84.24-43.60L84.24-43.60Q84.24-47.76 81.20-47.76L81.20-47.76L81.20-47.76Q80-47.76 78.56-47.12L78.56-47.12L78.56-47.12Q75.92-44.64 73.44-37.28L73.44-37.28L73.44-37.28Q70.24-27.84 70.24-8.96"
            fill="#51cacc" stroke="none" stroke-width="none"
            transform="translate(-528.2000675201416,22.126529167340344)" style="fill: rgb(81, 202, 204);"></path>
        </g>
        <g class="path"
          style="transform: scale(1); transform-origin: -403.16px 6.92653px; animation: 1s linear -0.609231s infinite normal forwards running beat-b097d979-0547-49bc-aab4-ddbc0a1d8439;">
          <path
            d="M128.56-31.12L128.56-31.12L128.56-31.12Q138.72-31.12 138.72-23.04L138.72-23.04L138.72-23.04Q138.72-18 133.96-15.40L133.96-15.40L133.96-15.40Q129.20-12.80 120.40-12.72L120.40-12.72L120.40-12.72Q120.24-9.84 120.24-8.16L120.24-8.16L120.24-8.16Q120.24-4.56 121.88-2.84L121.88-2.84L121.88-2.84Q123.52-1.12 126-1.12L126-1.12L126-1.12Q128.48-1.12 130.52-2.08L130.52-2.08L130.52-2.08Q132.56-3.04 133.76-4.36L133.76-4.36L133.76-4.36Q134.96-5.68 135.84-7.12L135.84-7.12L135.84-7.12Q137.44-9.76 137.44-10.48L137.44-10.48L138.88-9.84L138.88-9.84Q138.64-8.56 137.44-6.44L137.44-6.44L137.44-6.44Q136.24-4.32 134.80-2.96L134.80-2.96L134.80-2.96Q133.36-1.60 130.56-0.44L130.56-0.44L130.56-0.44Q127.76 0.72 124.32 0.72L124.32 0.72L124.32 0.72Q117.84 0.72 114.52-2.36L114.52-2.36L114.52-2.36Q111.20-5.44 111.20-10.80L111.20-10.80L111.20-10.80Q111.20-20.32 115.92-25.72L115.92-25.72L115.92-25.72Q120.64-31.12 128.56-31.12zM136.72-23.04L136.72-23.04Q136.72-25.68 135.16-27.40L135.16-27.40L135.16-27.40Q133.60-29.12 130.52-29.12L130.52-29.12L130.52-29.12Q127.44-29.12 124.52-25.44L124.52-25.44L124.52-25.44Q121.60-21.76 120.64-14.56L120.64-14.56L120.64-14.56Q136.72-14.64 136.72-23.04L136.72-23.04"
            fill="#51cacc" stroke="none" stroke-width="none"
            transform="translate(-528.2000675201416,22.126529167340344)" style="fill: rgb(157, 248, 113);"></path>
        </g>
        <g class="path"
          style="transform: scale(1); transform-origin: -373.6px -3.43347px; animation: 1s linear -0.583846s infinite normal forwards running beat-b097d979-0547-49bc-aab4-ddbc0a1d8439;">
          <path
            d="M157.68-2.88L157.68-2.88L157.68-2.88Q156.64-1.52 154.84-0.40L154.84-0.40L154.84-0.40Q153.04 0.72 150.16 0.72L150.16 0.72L150.16 0.72Q147.28 0.72 145.28-1.12L145.28-1.12L145.28-1.12Q143.28-2.96 143.28-6.32L143.28-6.32L143.28-6.32Q143.28-6.96 143.44-8.40L143.44-8.40L148.64-37.20L148.64-37.20Q150.08-45.12 152.60-48.48L152.60-48.48L152.60-48.48Q155.12-51.84 159.28-51.84L159.28-51.84L159.28-51.84Q162.16-51.84 164.04-49.68L164.04-49.68L164.04-49.68Q165.92-47.52 165.92-43.12L165.92-43.12L165.92-43.12Q165.92-38.72 162.52-30.56L162.52-30.56L162.52-30.56Q159.12-22.40 159.12-18.64L159.12-18.64L157.68-18.64L157.68-18.64Q157.68-22.88 161.04-30.76L161.04-30.76L161.04-30.76Q164.40-38.64 164.40-43.36L164.40-43.36L164.40-43.36Q164.40-46.24 163.08-48.32L163.08-48.32L163.08-48.32Q161.76-50.40 159.84-50.40L159.84-50.40L159.84-50.40Q159.76-48.32 157.08-31.72L157.08-31.72L157.08-31.72Q154.40-15.12 151.76-0.88L151.76-0.88L151.76-0.88Q154-0.88 155.92-3.20L155.92-3.20L155.92-3.20Q157.84-5.52 158.64-7.84L158.64-7.84L159.52-10.24L160.96-9.60L160.96-9.60Q160.72-8.48 159.72-6.36L159.72-6.36L159.72-6.36Q158.72-4.24 157.68-2.88"
            fill="#51cacc" stroke="none" stroke-width="none"
            transform="translate(-528.2000675201416,22.126529167340344)" style="fill: rgb(224, 255, 119);"></path>
        </g>
        <g class="path"
          style="transform: scale(1); transform-origin: -348.44px 6.92653px; animation: 1s linear -0.558462s infinite normal forwards running beat-b097d979-0547-49bc-aab4-ddbc0a1d8439;">
          <path
            d="M184.56-16.72L184.56-16.72L184.56-16.72Q182.88-18.40 182.88-20.80L182.88-20.80L182.88-20.80Q182.88-23.20 184.56-24.92L184.56-24.92L184.56-24.92Q186.24-26.64 188.64-26.64L188.64-26.64L188.64-26.64Q189.36-26.64 190.48-26.32L190.48-26.32L190.48-26.32Q188.96-29.12 184.80-29.12L184.80-29.12L184.80-29.12Q180.64-29.12 177.44-23.84L177.44-23.84L177.44-23.84Q174.24-18.56 174.24-8.16L174.24-8.16L174.24-8.16Q174.24-4.56 175.88-2.84L175.88-2.84L175.88-2.84Q177.52-1.12 180-1.12L180-1.12L180-1.12Q182.48-1.12 184.52-2.08L184.52-2.08L184.52-2.08Q186.56-3.04 187.76-4.36L187.76-4.36L187.76-4.36Q188.96-5.68 189.84-7.12L189.84-7.12L189.84-7.12Q191.44-9.76 191.44-10.48L191.44-10.48L192.88-9.84L192.88-9.84Q192.64-8.56 191.44-6.44L191.44-6.44L191.44-6.44Q190.24-4.32 188.80-2.96L188.80-2.96L188.80-2.96Q187.36-1.60 184.56-0.44L184.56-0.44L184.56-0.44Q181.76 0.72 178.32 0.72L178.32 0.72L178.32 0.72Q171.84 0.72 168.52-2.36L168.52-2.36L168.52-2.36Q165.20-5.44 165.20-10.80L165.20-10.80L165.20-10.80Q165.20-20.32 169.96-25.72L169.96-25.72L169.96-25.72Q174.72-31.12 182.88-31.12L182.88-31.12L182.88-31.12Q188.40-31.12 191.36-28.32L191.36-28.32L191.36-28.32Q194.32-25.52 194.32-20.96L194.32-20.96L194.32-20.96Q194.32-18.08 192.60-16.56L192.60-16.56L192.60-16.56Q190.88-15.04 188.56-15.04L188.56-15.04L188.56-15.04Q186.24-15.04 184.56-16.72"
            fill="#51cacc" stroke="none" stroke-width="none"
            transform="translate(-528.2000675201416,22.126529167340344)" style="fill: rgb(222, 157, 214);"></path>
        </g>
        <g class="path"
          style="transform: scale(1); transform-origin: -314.84px 6.92653px; animation: 1s linear -0.533077s infinite normal forwards running beat-b097d979-0547-49bc-aab4-ddbc0a1d8439;">
          <path
            d="M210.24 0.72L210.24 0.72Q204.08 0.72 200.88-2.36L200.88-2.36L200.88-2.36Q197.68-5.44 197.68-10.12L197.68-10.12L197.68-10.12Q197.68-14.80 198.52-18.12L198.52-18.12L198.52-18.12Q199.36-21.44 201.28-24.52L201.28-24.52L201.28-24.52Q203.20-27.60 207.08-29.36L207.08-29.36L207.08-29.36Q210.96-31.12 216.76-31.12L216.76-31.12L216.76-31.12Q222.56-31.12 225.80-28.04L225.80-28.04L225.80-28.04Q229.04-24.96 229.04-19.60L229.04-19.60L229.04-19.60Q229.04-10.48 224.20-4.88L224.20-4.88L224.20-4.88Q219.36 0.72 210.24 0.72L210.24 0.72zM206.72-7.52L206.72-7.52L206.72-7.52Q206.72-1.12 210.44-1.12L210.44-1.12L210.44-1.12Q214.16-1.12 217.08-7.56L217.08-7.56L217.08-7.56Q220-14 220-22.88L220-22.88L220-22.88Q220-29.60 216.36-29.60L216.36-29.60L216.36-29.60Q212.72-29.60 209.72-23.48L209.72-23.48L209.72-23.48Q206.72-17.36 206.72-7.52"
            fill="#51cacc" stroke="none" stroke-width="none"
            transform="translate(-528.2000675201416,22.126529167340344)" style="fill: rgb(255, 112, 142);"></path>
        </g>
        <g class="path"
          style="transform: scale(1); transform-origin: -267.08px 6.92653px; animation: 1s linear -0.507692s infinite normal forwards running beat-b097d979-0547-49bc-aab4-ddbc0a1d8439;">
          <path
            d="M263.44-0.88L263.44-0.88L263.44-0.88Q265.36-0.88 267.44-3.12L267.44-3.12L268.64-2.16L268.64-2.16Q268.08-1.04 266.16-0.16L266.16-0.16L266.16-0.16Q264.24 0.72 261.92 0.72L261.92 0.72L261.92 0.72Q254.64 0.72 254.64-5.84L254.64-5.84L254.64-5.84Q254.64-8.64 256.08-15.84L256.08-15.84L256.08-15.84Q257.52-23.04 257.52-25.28L257.52-25.28L257.52-25.28Q257.52-28.72 254.24-28.72L254.24-28.72L254.24-28.72Q249.28-28.72 245.92-16L245.92-16L243.04 0L233.44 0L238.72-29.52L238.72-29.52Q236.32-29.28 234.72-27.28L234.72-27.28L233.52-28.24L233.52-28.24Q235.92-31.12 239.56-31.12L239.56-31.12L239.56-31.12Q243.20-31.12 245.20-29.28L245.20-29.28L245.20-29.28Q247.20-27.44 247.20-24.08L247.20-24.08L247.20-23.84L247.20-23.84Q250.32-31.12 256.64-31.12L256.64-31.12L256.64-31.12Q261.12-31.12 263.72-28.68L263.72-28.68L263.72-28.68Q266.32-26.24 266.56-21.84L266.56-21.84L266.56-21.84Q268.08-26.24 270.40-28.68L270.40-28.68L270.40-28.68Q272.72-31.12 277.12-31.12L277.12-31.12L277.12-31.12Q281.52-31.12 284.16-28.44L284.16-28.44L284.16-28.44Q286.80-25.76 286.80-21.04L286.80-21.04L286.80-21.04Q286.80-18.56 285.28-11.48L285.28-11.48L285.28-11.48Q283.76-4.40 283.60-0.88L283.60-0.88L283.60-0.88Q285.52-0.88 287.60-3.12L287.60-3.12L288.80-2.16L288.80-2.16Q288.24-1.04 286.32-0.16L286.32-0.16L286.32-0.16Q284.40 0.72 282.08 0.72L282.08 0.72L282.08 0.72Q274.80 0.72 274.80-5.84L274.80-5.84L274.80-5.84Q274.80-8.64 276.24-15.84L276.24-15.84L276.24-15.84Q277.68-23.04 277.68-25.28L277.68-25.28L277.68-25.28Q277.68-28.72 274.40-28.72L274.40-28.72L274.40-28.72Q268.64-28.72 265.12-11.60L265.12-11.60L265.12-11.60Q263.60-4.32 263.44-0.88"
            fill="#51cacc" stroke="none" stroke-width="none"
            transform="translate(-528.2000675201416,22.126529167340344)" style="fill: rgb(81, 202, 204);"></path>
        </g>
        <g class="path"
          style="transform: scale(1); transform-origin: -221.88px 6.92653px; animation: 1s linear -0.482308s infinite normal forwards running beat-b097d979-0547-49bc-aab4-ddbc0a1d8439;">
          <path
            d="M309.84-31.12L309.84-31.12L309.84-31.12Q320.00-31.12 320.00-23.04L320.00-23.04L320.00-23.04Q320.00-18 315.24-15.40L315.24-15.40L315.24-15.40Q310.48-12.80 301.68-12.72L301.68-12.72L301.68-12.72Q301.52-9.84 301.52-8.16L301.52-8.16L301.52-8.16Q301.52-4.56 303.16-2.84L303.16-2.84L303.16-2.84Q304.80-1.12 307.28-1.12L307.28-1.12L307.28-1.12Q309.76-1.12 311.80-2.08L311.80-2.08L311.80-2.08Q313.84-3.04 315.04-4.36L315.04-4.36L315.04-4.36Q316.24-5.68 317.12-7.12L317.12-7.12L317.12-7.12Q318.72-9.76 318.72-10.48L318.72-10.48L320.16-9.84L320.16-9.84Q319.92-8.56 318.72-6.44L318.72-6.44L318.72-6.44Q317.52-4.32 316.08-2.96L316.08-2.96L316.08-2.96Q314.64-1.60 311.84-0.44L311.84-0.44L311.84-0.44Q309.04 0.72 305.60 0.72L305.60 0.72L305.60 0.72Q299.12 0.72 295.80-2.36L295.80-2.36L295.80-2.36Q292.48-5.44 292.48-10.80L292.48-10.80L292.48-10.80Q292.48-20.32 297.20-25.72L297.20-25.72L297.20-25.72Q301.92-31.12 309.84-31.12zM318.00-23.04L318.00-23.04Q318.00-25.68 316.44-27.40L316.44-27.40L316.44-27.40Q314.88-29.12 311.80-29.12L311.80-29.12L311.80-29.12Q308.72-29.12 305.80-25.44L305.80-25.44L305.80-25.44Q302.88-21.76 301.92-14.56L301.92-14.56L301.92-14.56Q318.00-14.64 318.00-23.04L318.00-23.04"
            fill="#51cacc" stroke="none" stroke-width="none"
            transform="translate(-528.2000675201416,22.126529167340344)" style="fill: rgb(157, 248, 113);"></path>
        </g>
        <g class="path"
          style="transform: scale(1); transform-origin: -161.08px 5.16653px; animation: 1s linear -0.456923s infinite normal forwards running beat-b097d979-0547-49bc-aab4-ddbc0a1d8439;">
          <path
            d="M360.88-47.04L360.88-47.04L360.88-47.04Q353.28-47.04 349.48-42.88L349.48-42.88L349.48-42.88Q345.68-38.72 345.68-29.52L345.68-29.52L343.84-29.52L343.84-29.52Q343.84-48.72 360.40-48.72L360.40-48.72L360.40-48.72Q365.76-48.72 375.52-44.64L375.52-44.64L375.52-44.64Q385.28-40.56 390.40-40.56L390.40-40.56L390.40-38.72L390.40-38.72Q388.32-38.72 385.68-39.28L385.68-39.28L385.68-39.28Q385.12-39.12 383.72-37.48L383.72-37.48L383.72-37.48Q382.32-35.84 381.12-33.76L381.12-33.76L381.12-33.76Q377.76-27.68 375.20-18.24L375.20-18.24L383.84-18.24L383.68-16.80L374.80-16.80L374.80-16.80Q374.24-14.96 373.52-11.76L373.52-11.76L373.52-11.76Q370.24 2.56 366.60 8.68L366.60 8.68L366.60 8.68Q362.96 14.80 355.92 14.80L355.92 14.80L355.92 14.80Q351.68 14.80 350.08 13.84L350.08 13.84L350.88 12.16L350.88 12.16Q352.00 13.28 356.40 13.28L356.40 13.28L356.40 13.28Q356.96 13.28 358.24 13.12L358.24 13.12L363.92-11.52L363.92-11.52Q364.16-12.56 364.64-14.48L364.64-14.48L364.64-14.48Q365.12-16.40 365.20-16.80L365.20-16.80L356.48-16.80L356.64-18.24L365.52-18.24L365.52-18.24Q368.64-30 371.72-35.40L371.72-35.40L371.72-35.40Q374.80-40.80 378.96-41.36L378.96-41.36L378.96-41.36Q378.00-41.76 374.68-43.20L374.68-43.20L374.68-43.20Q371.36-44.64 369.92-45.20L369.92-45.20L369.92-45.20Q365.04-47.04 360.88-47.04"
            fill="#51cacc" stroke="none" stroke-width="none"
            transform="translate(-528.2000675201416,22.126529167340344)" style="fill: rgb(224, 255, 119);"></path>
        </g>
        <g class="path"
          style="transform: scale(1); transform-origin: -119.76px 6.92653px; animation: 1s linear -0.431538s infinite normal forwards running beat-b097d979-0547-49bc-aab4-ddbc0a1d8439;">
          <path
            d="M421.20-0.88L421.20-0.88L421.20-0.88Q423.12-0.88 425.20-3.12L425.20-3.12L426.40-2.16L426.40-2.16Q425.84-1.04 423.92-0.16L423.92-0.16L423.92-0.16Q422.00 0.72 419.68 0.72L419.68 0.72L419.68 0.72Q412.40 0.72 412.40-5.84L412.40-5.84L412.40-5.84Q412.40-8.64 413.84-15.84L413.84-15.84L413.84-15.84Q415.28-23.04 415.28-25.28L415.28-25.28L415.28-25.28Q415.28-28.72 412.00-28.72L412.00-28.72L412.00-28.72Q409.36-28.72 406.92-25.28L406.92-25.28L406.92-25.28Q404.48-21.84 402.88-15.84L402.88-15.84L400.16-0.88L400.16-0.88Q402.64-1.12 404.24-3.12L404.24-3.12L405.44-2.16L405.44-2.16Q403.04 0.72 399.44 0.72L399.44 0.72L399.44 0.72Q395.84 0.72 393.80-1.12L393.80-1.12L393.80-1.12Q391.76-2.96 391.76-5.92L391.76-5.92L391.76-5.92Q391.76-7.04 393.04-14.72L393.04-14.72L395.68-29.52L395.68-29.52Q393.28-29.28 391.68-27.28L391.68-27.28L390.48-28.24L390.48-28.24Q392.88-31.12 396.52-31.12L396.52-31.12L396.52-31.12Q400.16-31.12 402.16-29.28L402.16-29.28L402.16-29.28Q404.16-27.44 404.16-24.08L404.16-24.08L404.16-23.60L404.16-23.60Q407.44-31.12 414.40-31.12L414.40-31.12L414.40-31.12Q419.12-31.12 421.76-28.44L421.76-28.44L421.76-28.44Q424.40-25.76 424.40-21.04L424.40-21.04L424.40-21.04Q424.40-18.56 422.88-11.48L422.88-11.48L422.88-11.48Q421.36-4.40 421.20-0.88"
            fill="#51cacc" stroke="none" stroke-width="none"
            transform="translate(-528.2000675201416,22.126529167340344)" style="fill: rgb(222, 157, 214);"></path>
        </g>
        <g class="path"
          style="transform: scale(1); transform-origin: -35.0401px 3.68653px; animation: 1s linear -0.406154s infinite normal forwards running beat-b097d979-0547-49bc-aab4-ddbc0a1d8439;">
          <path
            d="M525.92 3.28L525.92 3.28L525.92 3.28Q528.00 3.28 529.92 1.04L529.92 1.04L531.12 2L531.12 2Q530.88 2.32 530.48 2.80L530.48 2.80L530.48 2.80Q530.08 3.28 528.52 4.08L528.52 4.08L528.52 4.08Q526.96 4.88 525.12 4.88L525.12 4.88L525.12 4.88Q516.16 4.88 516.16-2.88L516.16-2.88L516.16-2.88Q516.16-5.28 516.72-10L516.72-10L516.72-10Q512.88-8.80 509.84-8.80L509.84-8.80L509.84-8.80Q504.48-8.80 499.12-12.08L499.12-12.08L499.12-12.08Q496.00-6.72 493.28-2.92L493.28-2.92L493.28-2.92Q490.56 0.88 486.96 4.48L486.96 4.48L486.96 4.48Q479.52 11.76 469.00 11.76L469.00 11.76L469.00 11.76Q458.48 11.76 452.24 5.04L452.24 5.04L452.24 5.04Q446.72-1.12 446.72-9.96L446.72-9.96L446.72-9.96Q446.72-18.80 452.40-25.68L452.40-25.68L452.40-25.68Q458.08-32.56 467.12-32.56L467.12-32.56L467.12-32.56Q476.16-32.56 480.88-27.20L480.88-27.20L480.88-27.20Q482.00-25.76 482.48-25.04L482.48-25.04L482.48-25.04Q486.80-23.20 492.32-18.96L492.32-18.96L492.32-18.96Q496.48-15.60 498.48-14.32L498.48-14.32L498.48-14.32Q499.60-16.40 501.56-19.92L501.56-19.92L501.56-19.92Q503.52-23.44 504.56-25.28L504.56-25.28L504.56-25.28Q505.60-27.12 507.68-30.48L507.68-30.48L507.68-30.48Q509.76-33.84 511.08-35.56L511.08-35.56L511.08-35.56Q512.40-37.28 514.60-39.88L514.60-39.88L514.60-39.88Q516.80-42.48 518.64-43.76L518.64-43.76L518.64-43.76Q524.16-47.68 527.92-48.32L527.92-48.32L527.92-48.32Q530.00-48.64 531.44-48.64L531.44-48.64L531.44-48.64Q532.88-48.64 534.64-48.60L534.64-48.60L534.64-48.60Q536.40-48.56 539.60-47.68L539.60-47.68L539.20-46.16L539.20-46.16Q537.28-46.72 535.12-46.96L535.12-46.96L535.12-46.96Q527.12-15.52 525.92 3.28zM485.04-15.76L485.04-15.76L485.04-15.76Q485.04-9.84 481.64-5.28L481.64-5.28L481.64-5.28Q478.24-0.72 472.48-0.72L472.48-0.72L472.48-0.72Q468.72-0.72 466.36-2.96L466.36-2.96L466.36-2.96Q464.00-5.20 464.00-7.60L464.00-7.60L464.00-7.60Q464.00-10 464.72-11.56L464.72-11.56L464.72-11.56Q465.44-13.12 466.36-13.92L466.36-13.92L466.36-13.92Q467.28-14.72 468.40-15.20L468.40-15.20L468.40-15.20Q469.92-16 470.80-16L470.80-16L470.96-14.40L470.96-14.40Q468.96-14.40 467.28-12.48L467.28-12.48L467.28-12.48Q465.60-10.56 465.60-8.16L465.60-8.16L465.60-8.16Q465.60-5.76 467.48-4.04L467.48-4.04L467.48-4.04Q469.36-2.32 472.48-2.32L472.48-2.32L472.48-2.32Q477.60-2.32 480.56-6.32L480.56-6.32L480.56-6.32Q483.52-10.32 483.52-15.20L483.52-15.20L483.52-15.20Q483.52-20.08 481.52-23.68L481.52-23.68L481.52-23.68Q477.12-25.36 472.80-25.36L472.80-25.36L472.80-25.36Q464.48-25.36 461.04-17.60L461.04-17.60L459.52-18.08L459.52-18.08Q460.40-20.08 462.32-22.40L462.32-22.40L462.32-22.40Q466.08-26.96 472.80-26.96L472.80-26.96L472.80-26.96Q476.40-26.96 479.92-25.92L479.92-25.92L479.76-26.16L479.76-26.16Q475.36-30.96 467.08-30.96L467.08-30.96L467.08-30.96Q458.80-30.96 453.56-24.56L453.56-24.56L453.56-24.56Q448.32-18.16 448.32-9.88L448.32-9.88L448.32-9.88Q448.32-1.60 453.44 3.92L453.44 3.92L453.44 3.92Q459.20 10.16 469.52 10.16L469.52 10.16L469.52 10.16Q478.96 10.16 486.00 3.04L486.00 3.04L486.00 3.04Q489.52-0.40 492.12-4.08L492.12-4.08L492.12-4.08Q494.72-7.76 497.76-12.96L497.76-12.96L497.76-12.96Q495.04-14.72 491.16-17.80L491.16-17.80L491.16-17.80Q487.28-20.88 483.68-22.72L483.68-22.72L483.68-22.72Q485.04-19.36 485.04-15.76zM502.96-18.96L499.92-13.44L499.92-13.44Q505.04-10.40 509.32-10.40L509.32-10.40L509.32-10.40Q513.60-10.40 516.96-11.76L516.96-11.76L516.96-11.76Q518.88-25.28 524.16-45.36L524.16-45.36L524.16-45.36Q517.76-42.32 512.40-34.56L512.40-34.56L512.40-34.56Q508.48-28.96 502.96-18.96L502.96-18.96"
            fill="#51cacc" stroke="none" stroke-width="none"
            transform="translate(-528.2000675201416,22.126529167340344)" style="fill: rgb(255, 112, 142);"></path>
        </g>
        <g class="path"
          style="transform: scale(1); transform-origin: 22.4799px -3.43347px; animation: 1s linear -0.380769s infinite normal forwards running beat-b097d979-0547-49bc-aab4-ddbc0a1d8439;">
          <path
            d="M553.76-2.88L553.76-2.88L553.76-2.88Q552.72-1.52 550.92-0.40L550.92-0.40L550.92-0.40Q549.12 0.72 546.24 0.72L546.24 0.72L546.24 0.72Q543.36 0.72 541.36-1.12L541.36-1.12L541.36-1.12Q539.36-2.96 539.36-6.32L539.36-6.32L539.36-6.32Q539.36-6.96 539.52-8.40L539.52-8.40L544.72-37.20L544.72-37.20Q546.16-45.12 548.68-48.48L548.68-48.48L548.68-48.48Q551.20-51.84 555.36-51.84L555.36-51.84L555.36-51.84Q558.24-51.84 560.12-49.68L560.12-49.68L560.12-49.68Q562.00-47.52 562.00-43.12L562.00-43.12L562.00-43.12Q562.00-38.72 558.60-30.56L558.60-30.56L558.60-30.56Q555.20-22.40 555.20-18.64L555.20-18.64L553.76-18.64L553.76-18.64Q553.76-22.88 557.12-30.76L557.12-30.76L557.12-30.76Q560.48-38.64 560.48-43.36L560.48-43.36L560.48-43.36Q560.48-46.24 559.16-48.32L559.16-48.32L559.16-48.32Q557.84-50.40 555.92-50.40L555.92-50.40L555.92-50.40Q555.84-48.32 553.16-31.72L553.16-31.72L553.16-31.72Q550.48-15.12 547.84-0.88L547.84-0.88L547.84-0.88Q550.08-0.88 552.00-3.20L552.00-3.20L552.00-3.20Q553.92-5.52 554.72-7.84L554.72-7.84L555.60-10.24L557.04-9.60L557.04-9.60Q556.80-8.48 555.80-6.36L555.80-6.36L555.80-6.36Q554.80-4.24 553.76-2.88"
            fill="#51cacc" stroke="none" stroke-width="none"
            transform="translate(-528.2000675201416,22.126529167340344)" style="fill: rgb(81, 202, 204);"></path>
        </g>
        <g class="path"
          style="transform: scale(1); transform-origin: 50.1599px 6.68653px; animation: 1s linear -0.355385s infinite normal forwards running beat-b097d979-0547-49bc-aab4-ddbc0a1d8439;">
          <path d="M593.76-16.16L593.60-14.72L562.96-14.72L563.12-16.16L593.76-16.16" fill="#51cacc" stroke="none"
            stroke-width="none" transform="translate(-528.2000675201416,22.126529167340344)"
            style="fill: rgb(157, 248, 113);"></path>
        </g>
        <g class="path"
          style="transform: scale(1); transform-origin: 109px 3.88653px; animation: 1s linear -0.33s infinite normal forwards running beat-b097d979-0547-49bc-aab4-ddbc0a1d8439;">
          <path
            d="M602.08-24.80L602.08-24.80L602.08-24.80Q602.08-36.24 614.04-42.48L614.04-42.48L614.04-42.48Q626.00-48.72 647.84-48.72L647.84-48.72L647.84-48.72Q660.24-48.72 666.00-44.96L666.00-44.96L666.00-44.96Q671.76-41.20 671.76-34.72L671.76-34.72L671.76-34.72Q671.76-29.28 668.04-24.96L668.04-24.96L668.04-24.96Q664.32-20.64 657.60-18.56L657.60-18.56L657.60-18.56Q672.32-16.88 672.32-8.24L672.32-8.24L672.32-8.24Q672.32-3.76 669.16-0.76L669.16-0.76L669.16-0.76Q666.00 2.24 660.80 3.52L660.80 3.52L660.80 3.52Q652.00 5.68 642.72 5.68L642.72 5.68L642.72 4.08L642.72 4.08Q644.56 4.24 646.24 4.24L646.24 4.24L646.24 4.24Q654.24 4.24 658.32 1.44L658.32 1.44L658.32 1.44Q663.28-2 663.28-7.60L663.28-7.60L663.28-7.60Q663.28-10.80 661.32-13.32L661.32-13.32L661.32-13.32Q659.36-15.84 657.44-16.80L657.44-16.80L655.44-17.76L655.44-17.76Q652.88-17.20 649.68-17.20L649.68-17.20L649.68-18.80L649.68-18.80Q657.36-18.80 663.68-23.20L663.68-23.20L663.68-23.20Q670.00-27.60 670.00-34.72L670.00-34.72L670.00-34.72Q670.00-40.64 664.44-43.88L664.44-43.88L664.44-43.88Q658.88-47.12 648.56-47.20L648.56-47.20L648.56-47.20Q644.16-17.44 641.84-6.24L641.84-6.24L641.84-6.24Q640.24 2.40 633.84 7.32L633.84 7.32L633.84 7.32Q627.44 12.24 620.16 12.24L620.16 12.24L620.16 10.72L620.16 10.72Q623.28 10.48 624.76 10.04L624.76 10.04L624.76 10.04Q626.24 9.60 627.28 8.20L627.28 8.20L627.28 8.20Q628.32 6.80 628.80 4.88L628.80 4.88L628.80 4.88Q629.68 0.96 630.16-2.56L630.16-2.56L637.84-46.80L637.84-46.80Q621.44-45.44 612.52-39.72L612.52-39.72L612.52-39.72Q603.60-34 603.60-24.80L603.60-24.80L603.60-24.80Q603.60-20.64 606.48-17.76L606.48-17.76L606.48-17.76Q608.48-15.84 611.76-14.84L611.76-14.84L611.76-14.84Q615.04-13.84 617.16-13.72L617.16-13.72L617.16-13.72Q619.28-13.60 619.44-13.76L619.44-13.76L619.44-12.08L619.44-12.08Q610.00-12.08 605.44-16.56L605.44-16.56L605.44-16.56Q602.08-19.68 602.08-24.80"
            fill="#51cacc" stroke="none" stroke-width="none"
            transform="translate(-528.2000675201416,22.126529167340344)" style="fill: rgb(224, 255, 119);"></path>
        </g>
        <g class="path"
          style="transform: scale(1); transform-origin: 167.72px 6.92653px; animation: 1s linear -0.304615s infinite normal forwards running beat-b097d979-0547-49bc-aab4-ddbc0a1d8439;">
          <path
            d="M706.88 0.72L706.88 0.72L706.88 0.72Q699.84 0.72 699.20-5.44L699.20-5.44L699.20-5.44Q695.68 0.72 690.32 0.72L690.32 0.72L690.32 0.72Q684.96 0.72 681.80-2.52L681.80-2.52L681.80-2.52Q678.64-5.76 678.64-11.60L678.64-11.60L678.64-11.60Q678.64-20.72 683.12-25.92L683.12-25.92L683.12-25.92Q687.60-31.12 694.72-31.12L694.72-31.12L694.72-31.12Q700.56-31.12 702.48-25.60L702.48-25.60L702.48-25.60Q702.88-28 703.36-30.40L703.36-30.40L703.36-30.40Q709.28-30.40 712.16-30.88L712.16-30.88L713.20-31.12L707.68-0.88L707.68-0.88Q710.08-1.12 711.68-3.12L711.68-3.12L712.88-2.16L712.88-2.16Q710.48 0.72 706.88 0.72zM687.68-7.52L687.68-7.52Q687.68-3.92 688.60-2.52L688.60-2.52L688.60-2.52Q689.52-1.12 691.44-1.12L691.44-1.12L691.44-1.12Q693.36-1.12 695.36-3.20L695.36-3.20L695.36-3.20Q698.00-5.92 699.60-10.08L699.60-10.08L699.60-10.08Q699.84-11.12 700.52-15.08L700.52-15.08L700.52-15.08Q701.20-19.04 701.68-21.60L701.68-21.60L701.68-21.60Q701.44-24.64 700.00-26.88L700.00-26.88L700.00-26.88Q698.56-29.12 696.40-29.12L696.40-29.12L696.40-29.12Q692.48-29.12 690.08-22.12L690.08-22.12L690.08-22.12Q687.68-15.12 687.68-7.52L687.68-7.52"
            fill="#51cacc" stroke="none" stroke-width="none"
            transform="translate(-528.2000675201416,22.126529167340344)" style="fill: rgb(222, 157, 214);"></path>
        </g>
        <g class="path"
          style="transform: scale(1); transform-origin: 200.6px 5.08653px; animation: 1s linear -0.279231s infinite normal forwards running beat-b097d979-0547-49bc-aab4-ddbc0a1d8439;">
          <path
            d="M724.88-1.36L724.88-1.36L724.88-1.36Q732.80-1.36 732.80-13.04L732.80-13.04L732.80-13.04Q732.80-15.92 731.96-19.84L731.96-19.84L731.96-19.84Q731.12-23.76 730.96-24.72L730.96-24.72L730.96-24.72Q726.08-19.68 720.00-18.64L720.00-18.64L720.00-20.56L720.00-20.56Q725.76-21.84 730.80-27.12L730.80-27.12L730.80-27.44L730.80-27.44Q730.80-29.36 731.36-31.20L731.36-31.20L731.36-31.20Q731.92-33.04 732.48-33.92L732.48-33.92L733.04-34.80L734.96-34.80L734.96-34.80Q734.96-31.28 736.08-28.36L736.08-28.36L736.08-28.36Q737.20-25.44 738.56-23.64L738.56-23.64L738.56-23.64Q739.92-21.84 741.04-18.92L741.04-18.92L741.04-18.92Q742.16-16 742.16-12.48L742.16-12.48L742.16-12.48Q742.16-6.80 737.88-3.04L737.88-3.04L737.88-3.04Q733.60 0.72 727.60 0.72L727.60 0.72L727.60 0.72Q721.60 0.72 718.52-2L718.52-2L718.52-2Q715.44-4.72 715.44-8.28L715.44-8.28L715.44-8.28Q715.44-11.84 717.20-13.40L717.20-13.40L717.20-13.40Q718.96-14.96 721.36-14.96L721.36-14.96L721.36-14.96Q723.76-14.96 725.32-13.40L725.32-13.40L725.32-13.40Q726.88-11.84 726.88-9.40L726.88-9.40L726.88-9.40Q726.88-6.96 725.36-5.28L725.36-5.28L725.36-5.28Q723.84-3.60 721.44-3.60L721.44-3.60L721.44-3.60Q720.40-3.60 719.28-3.92L719.28-3.92L719.28-3.92Q721.04-1.36 724.88-1.36"
            fill="#51cacc" stroke="none" stroke-width="none"
            transform="translate(-528.2000675201416,22.126529167340344)" style="fill: rgb(255, 112, 142);"></path>
        </g>
        <g class="path"
          style="transform: scale(1); transform-origin: 235.8px -3.43347px; animation: 1s linear -0.253846s infinite normal forwards running beat-b097d979-0547-49bc-aab4-ddbc0a1d8439;">
          <path
            d="M776.80-0.88L776.80-0.88L776.80-0.88Q778.72-0.88 780.80-3.12L780.80-3.12L782.00-2.16L782.00-2.16Q781.44-1.04 779.52-0.16L779.52-0.16L779.52-0.16Q777.60 0.72 775.28 0.72L775.28 0.72L775.28 0.72Q768.00 0.72 768.00-5.84L768.00-5.84L768.00-5.84Q768.00-8.64 769.44-15.84L769.44-15.84L769.44-15.84Q770.88-23.04 770.88-25.28L770.88-25.28L770.88-25.28Q770.88-28.72 767.60-28.72L767.60-28.72L767.60-28.72Q764.88-28.72 762.36-25.04L762.36-25.04L762.36-25.04Q759.84-21.36 758.24-15.04L758.24-15.04L755.60 0L746.00 0L754.88-50.24L754.88-50.24Q752.48-50 750.88-48L750.88-48L749.68-48.96L749.68-48.96Q752.08-51.84 755.72-51.84L755.72-51.84L755.72-51.84Q759.36-51.84 761.36-50L761.36-50L761.36-50Q763.36-48.16 763.36-44.80L763.36-44.80L763.36-44.80Q763.36-44.16 763.20-42.72L763.20-42.72L759.84-23.76L759.84-23.76Q763.12-31.12 770.00-31.12L770.00-31.12L770.00-31.12Q774.72-31.12 777.36-28.44L777.36-28.44L777.36-28.44Q780.00-25.76 780.00-21.04L780.00-21.04L780.00-21.04Q780.00-18.56 778.48-11.48L778.48-11.48L778.48-11.48Q776.96-4.40 776.80-0.88"
            fill="#51cacc" stroke="none" stroke-width="none"
            transform="translate(-528.2000675201416,22.126529167340344)" style="fill: rgb(81, 202, 204);"></path>
        </g>
        <g class="path"
          style="transform: scale(1); transform-origin: 265.68px 6.92653px; animation: 1s linear -0.228462s infinite normal forwards running beat-b097d979-0547-49bc-aab4-ddbc0a1d8439;">
          <path
            d="M800.56-2.16L800.56-2.16Q798.16 0.72 794.56 0.72L794.56 0.72L794.56 0.72Q790.96 0.72 788.92-1.12L788.92-1.12L788.92-1.12Q786.88-2.96 786.88-5.92L786.88-5.92L786.88-5.92Q786.88-6.96 788.16-14.64L788.16-14.64L790.80-28.96L787.44-28.96L787.60-30.40L791.04-30.40L791.04-30.40Q796.96-30.40 799.76-30.88L799.76-30.88L800.88-31.12L795.36-0.88L795.36-0.88Q797.76-1.12 799.36-3.12L799.36-3.12L800.56-2.16"
            fill="#51cacc" stroke="none" stroke-width="none"
            transform="translate(-528.2000675201416,22.126529167340344)" style="fill: rgb(157, 248, 113);"></path>
        </g>
        <g class="path"
          style="transform: scale(1); transform-origin: 269.44px -20.7935px; animation: 1s linear -0.203077s infinite normal forwards running beat-b097d979-0547-49bc-aab4-ddbc0a1d8439;">
          <path
            d="M793.52-38.80L793.52-38.80L793.52-38.80Q791.84-40.48 791.84-42.88L791.84-42.88L791.84-42.88Q791.84-45.28 793.52-47L793.52-47L793.52-47Q795.20-48.72 797.60-48.72L797.60-48.72L797.60-48.72Q800.00-48.72 801.72-47L801.72-47L801.72-47Q803.44-45.28 803.44-42.88L803.44-42.88L803.44-42.88Q803.44-40.48 801.72-38.80L801.72-38.80L801.72-38.80Q800.00-37.12 797.60-37.12L797.60-37.12L797.60-37.12Q795.20-37.12 793.52-38.80"
            fill="#51cacc" stroke="none" stroke-width="none"
            transform="translate(-528.2000675201416,22.126529167340344)" style="fill: rgb(224, 255, 119);"></path>
        </g>
        <g class="path"
          style="transform: scale(1); transform-origin: 291.96px 6.56653px; animation: 1s linear -0.177692s infinite normal forwards running beat-b097d979-0547-49bc-aab4-ddbc0a1d8439;">
          <path
            d="M806.80-27.28L805.60-28.24L805.60-28.24Q808.00-31.12 811.64-31.12L811.64-31.12L811.64-31.12Q815.28-31.12 817.28-29.28L817.28-29.28L817.28-29.28Q819.28-27.44 819.28-24.08L819.28-24.08L819.28-23.60L819.28-23.60Q822.88-31.12 828.64-31.12L828.64-31.12L828.64-31.12Q834.80-31.12 834.80-24.72L834.80-24.72L834.80-24.72Q834.80-22.08 833.04-19.12L833.04-19.12L833.04-19.12Q831.28-16.16 829.52-13.48L829.52-13.48L829.52-13.48Q827.76-10.80 827.76-8.72L827.76-8.72L825.84-8.72L825.84-8.72Q825.84-11.68 829.28-16.72L829.28-16.72L829.28-16.72Q832.72-21.76 832.72-24.52L832.72-24.52L832.72-24.52Q832.72-27.28 831.64-28.28L831.64-28.28L831.64-28.28Q830.56-29.28 828.44-29.28L828.44-29.28L828.44-29.28Q826.32-29.28 824.28-27.44L824.28-27.44L824.28-27.44Q822.24-25.60 820.88-22.80L820.88-22.80L820.88-22.80Q818.72-18.64 818.00-16L818.00-16L818.00-15.92L815.12 0L805.52 0L810.80-29.52L810.80-29.52Q808.40-29.28 806.80-27.28L806.80-27.28"
            fill="#51cacc" stroke="none" stroke-width="none"
            transform="translate(-528.2000675201416,22.126529167340344)" style="fill: rgb(222, 157, 214);"></path>
        </g>
        <g class="path"
          style="transform: scale(1); transform-origin: 354.16px 3.16653px; animation: 1s linear -0.152308s infinite normal forwards running beat-b097d979-0547-49bc-aab4-ddbc0a1d8439;">
          <path
            d="M873.52 15.52L873.52 15.52L873.52 15.52Q881.92 15.52 886.60 12.08L886.60 12.08L886.60 12.08Q891.28 8.64 891.28 2.96L891.28 2.96L891.28 2.96Q891.28-1.12 889.24-4.24L889.24-4.24L889.24-4.24Q887.20-7.36 884.16-9.40L884.16-9.40L884.16-9.40Q881.12-11.44 877.96-13.44L877.96-13.44L877.96-13.44Q874.80-15.44 872.08-18.48L872.08-18.48L872.08-18.48Q869.36-21.52 868.48-25.36L868.48-25.36L868.48-25.36Q861.20-27.52 858.88-34.40L858.88-34.40L858.88-34.40Q858.00-37.04 858.00-39.92L858.00-39.92L858.00-39.92Q858.00-42.80 858.88-45.92L858.88-45.92L858.88-45.92Q860.72-52.08 864.88-55.20L864.88-55.20L865.76-53.92L865.76-53.92Q862.00-51.20 860.32-45.44L860.32-45.44L860.32-45.44Q859.52-42.56 859.52-39.92L859.52-39.92L859.52-39.92Q859.52-37.28 860.32-34.88L860.32-34.88L860.32-34.88Q862.24-29.04 868.24-27.04L868.24-27.04L868.24-27.04Q868.08-27.92 868.08-29.76L868.08-29.76L868.08-29.76Q868.08-40.24 875.68-46.72L875.68-46.72L875.68-46.72Q883.28-53.20 894.24-53.20L894.24-53.20L894.24-53.20Q901.44-53.20 905.76-49.28L905.76-49.28L905.76-49.28Q909.44-45.84 909.44-40.84L909.44-40.84L909.44-40.84Q909.44-35.84 906.08-32.20L906.08-32.20L906.08-32.20Q902.72-28.56 897.04-28.56L897.04-28.56L897.04-28.56Q893.92-28.56 891.92-29.76L891.92-29.76L891.92-29.76Q887.84-26.64 882.24-25.28L882.24-25.28L882.24-25.28Q883.84-23.76 889.72-19.68L889.72-19.68L889.72-19.68Q895.60-15.60 898.52-11.88L898.52-11.88L898.52-11.88Q901.44-8.16 901.44-3.20L901.44-3.20L901.44-3.20Q901.44 5.92 894.36 11.60L894.36 11.60L894.36 11.60Q887.28 17.28 876.44 17.28L876.44 17.28L876.44 17.28Q865.60 17.28 860.08 12.48L860.08 12.48L860.08 12.48Q855.28 8.40 855.28 2.52L855.28 2.52L855.28 2.52Q855.28-3.36 859.08-7.56L859.08-7.56L859.08-7.56Q862.88-11.76 868.56-11.76L868.56-11.76L868.56-11.76Q874.24-11.76 876.96-9.24L876.96-9.24L876.96-9.24Q879.68-6.72 879.68-3.12L879.68-3.12L879.68-3.12Q879.68 0.48 877.48 3.28L877.48 3.28L877.48 3.28Q875.28 6.08 871.76 6.08L871.76 6.08L871.76 6.08Q868.24 6.08 866.16 3.84L866.16 3.84L866.16 3.84Q864.24 1.92 864.00-0.96L864.00-0.96L864.00-0.96Q863.92-1.76 864.00-1.92L864.00-1.92L865.52-1.84L865.52-1.84Q865.44 0.96 867.28 2.80L867.28 2.80L867.28 2.80Q868.80 4.48 871.72 4.48L871.72 4.48L871.72 4.48Q874.64 4.48 876.40 2.20L876.40 2.20L876.40 2.20Q878.16-0.08 878.16-3.08L878.16-3.08L878.16-3.08Q878.16-6.08 876.08-7.92L876.08-7.92L876.08-7.92Q873.76-10.24 868.64-10.24L868.64-10.24L868.64-10.24Q863.52-10.24 860.16-6.52L860.16-6.52L860.16-6.52Q856.80-2.80 856.80 2.44L856.80 2.44L856.80 2.44Q856.80 7.68 861.12 11.36L861.12 11.36L861.12 11.36Q863.68 13.60 866.36 14.56L866.36 14.56L866.36 14.56Q869.04 15.52 873.52 15.52zM887.12-39.52L887.12-39.52L887.12-39.52Q887.12-43.04 888.92-45.36L888.92-45.36L888.92-45.36Q890.72-47.68 893.84-47.68L893.84-47.68L893.84-47.68Q899.20-47.68 899.20-41.80L899.20-41.80L899.20-41.80Q899.20-35.92 893.36-30.72L893.36-30.72L893.36-30.72Q895.12-29.92 897.04-29.92L897.04-29.92L897.04-29.92Q902.00-29.92 904.96-33.16L904.96-33.16L904.96-33.16Q907.92-36.40 907.92-40.76L907.92-40.76L907.92-40.76Q907.92-45.12 904.72-48.16L904.72-48.16L904.72-48.16Q900.80-51.68 894.40-51.68L894.40-51.68L894.40-51.68Q888.00-51.68 883.52-48.56L883.52-48.56L883.52-48.56Q876.56-43.60 876.56-35.76L876.56-35.76L876.56-35.76Q876.56-29.28 880.88-26.32L880.88-26.32L880.88-26.32Q886.24-27.52 890.80-30.64L890.80-30.64L890.80-30.64Q887.12-33.92 887.12-39.52zM893.76-46.24L893.76-46.24L893.76-46.24Q891.36-46.24 890.04-44.40L890.04-44.40L890.04-44.40Q888.72-42.56 888.72-39.52L888.72-39.52L888.72-39.52Q888.72-34.32 892.00-31.60L892.00-31.60L892.00-31.60Q894.40-33.28 896.00-36.16L896.00-36.16L896.00-36.16Q897.60-39.04 897.60-41.84L897.60-41.84L897.60-41.84Q897.60-46.24 893.76-46.24"
            fill="#51cacc" stroke="none" stroke-width="none"
            transform="translate(-528.2000675201416,22.126529167340344)" style="fill: rgb(255, 112, 142);"></path>
        </g>
        <g class="path"
          style="transform: scale(1); transform-origin: 394.68px 1.00653px; animation: 1s linear -0.126923s infinite normal forwards running beat-b097d979-0547-49bc-aab4-ddbc0a1d8439;">
          <path
            d="M911.20-30.40L915.28-30.40L917.44-42.24L917.44-42.24Q923.36-42.24 926.24-42.72L926.24-42.72L927.28-42.96L927.28-42.96Q926.16-37.36 924.80-30.40L924.80-30.40L934.72-30.40L934.56-28.96L924.56-28.96L924.56-28.96Q920.56-8.32 920.56-4.08L920.56-4.08L920.56-4.08Q920.56-1.52 923.28-1.52L923.28-1.52L923.28-1.52Q926.00-1.52 928.24-4.96L928.24-4.96L928.24-4.96Q930.48-8.40 931.44-12.40L931.44-12.40L932.88-11.92L932.88-11.92Q929.92 0.72 920.64 0.72L920.64 0.72L920.64 0.72Q916.80 0.72 914.24-1.40L914.24-1.40L914.24-1.40Q911.68-3.52 911.68-7.32L911.68-7.32L911.68-7.32Q911.68-11.12 914.96-28.96L914.96-28.96L911.04-28.96L911.20-30.40"
            fill="#51cacc" stroke="none" stroke-width="none"
            transform="translate(-528.2000675201416,22.126529167340344)" style="fill: rgb(81, 202, 204);"></path>
        </g>
        <g class="path"
          style="transform: scale(1); transform-origin: 425.52px 6.92653px; animation: 1s linear -0.101538s infinite normal forwards running beat-b097d979-0547-49bc-aab4-ddbc0a1d8439;">
          <path
            d="M941.04-29.52L941.04-29.52L941.04-29.52Q939.12-29.52 937.04-27.28L937.04-27.28L935.84-28.24L935.84-28.24Q936.40-29.36 938.32-30.24L938.32-30.24L938.32-30.24Q940.24-31.12 942.56-31.12L942.56-31.12L942.56-31.12Q949.84-31.12 949.84-24.56L949.84-24.56L949.84-24.56Q949.84-21.76 948.40-14.56L948.40-14.56L948.40-14.56Q946.96-7.36 946.96-5.12L946.96-5.12L946.96-5.12Q946.96-1.68 950.24-1.68L950.24-1.68L950.24-1.68Q952.56-1.68 954.76-4.40L954.76-4.40L954.76-4.40Q956.96-7.12 958.56-11.92L958.56-11.92L961.92-30.40L961.92-30.40Q967.84-30.40 970.56-30.88L970.56-30.88L971.60-31.12L966.24-0.88L966.24-0.88Q968.64-1.12 970.24-3.12L970.24-3.12L971.44-2.16L971.44-2.16Q969.04 0.72 965.44 0.72L965.44 0.72L965.44 0.72Q961.84 0.72 959.84-1.04L959.84-1.04L959.84-1.04Q957.84-2.80 957.76-6L957.76-6L957.76-6Q954.40 0.72 947.84 0.72L947.84 0.72L947.84 0.72Q943.12 0.72 940.48-1.96L940.48-1.96L940.48-1.96Q937.84-4.64 937.84-9.36L937.84-9.36L937.84-9.36Q937.84-11.84 939.36-18.92L939.36-18.92L939.36-18.92Q940.88-26 941.04-29.52"
            fill="#51cacc" stroke="none" stroke-width="none"
            transform="translate(-528.2000675201416,22.126529167340344)" style="fill: rgb(157, 248, 113);"></path>
        </g>
        <g class="path"
          style="transform: scale(1); transform-origin: 465.92px -3.43347px; animation: 1s linear -0.0761538s infinite normal forwards running beat-b097d979-0547-49bc-aab4-ddbc0a1d8439;">
          <path
            d="M1003.76 0.72L1003.76 0.72L1003.76 0.72Q996.72 0.72 996.08-5.28L996.08-5.28L996.08-5.28Q992.56 0.72 987.12 0.72L987.12 0.72L987.12 0.72Q981.68 0.72 978.80-2.36L978.80-2.36L978.80-2.36Q975.92-5.44 975.92-10.80L975.92-10.80L975.92-10.80Q975.92-20.24 980.40-25.68L980.40-25.68L980.40-25.68Q984.88-31.12 992.00-31.12L992.00-31.12L992.00-31.12Q996.08-31.12 998.32-28.64L998.32-28.64L998.32-28.64Q999.28-27.36 999.52-26.72L999.52-26.72L1003.84-50.24L1003.84-50.24Q1001.44-50 999.84-48L999.84-48L998.64-48.96L998.64-48.96Q1001.04-51.84 1004.68-51.84L1004.68-51.84L1004.68-51.84Q1008.32-51.84 1010.32-50L1010.32-50L1010.32-50Q1012.32-48.16 1012.32-44.80L1012.32-44.80L1012.32-44.80Q1012.32-44.16 1012.16-42.72L1012.16-42.72L1012.16-42.72Q1008.24-20.72 1004.56-0.88L1004.56-0.88L1004.56-0.88Q1006.96-1.12 1008.56-3.12L1008.56-3.12L1009.76-2.16L1009.76-2.16Q1007.36 0.72 1003.76 0.72zM984.96-7.52L984.96-7.52Q984.96-3.84 985.72-2.48L985.72-2.48L985.72-2.48Q986.48-1.12 988.12-1.12L988.12-1.12L988.12-1.12Q989.76-1.12 991.28-2.24L991.28-2.24L991.28-2.24Q992.80-3.36 993.84-5.12L993.84-5.12L993.84-5.12Q995.76-8.08 996.56-10.16L996.56-10.16L998.88-22.80L998.88-22.80Q998.72-25.36 997.20-27.48L997.20-27.48L997.20-27.48Q995.68-29.60 992.00-29.60L992.00-29.60L992.00-29.60Q989.44-29.60 987.20-22.08L987.20-22.08L987.20-22.08Q984.96-14.56 984.96-7.52L984.96-7.52"
            fill="#51cacc" stroke="none" stroke-width="none"
            transform="translate(-528.2000675201416,22.126529167340344)" style="fill: rgb(224, 255, 119);"></path>
        </g>
        <g class="path"
          style="transform: scale(1); transform-origin: 494.08px 6.92653px; animation: 1s linear -0.0507692s infinite normal forwards running beat-b097d979-0547-49bc-aab4-ddbc0a1d8439;">
          <path
            d="M1028.96-2.16L1028.96-2.16Q1026.56 0.72 1022.96 0.72L1022.96 0.72L1022.96 0.72Q1019.36 0.72 1017.32-1.12L1017.32-1.12L1017.32-1.12Q1015.28-2.96 1015.28-5.92L1015.28-5.92L1015.28-5.92Q1015.28-6.96 1016.56-14.64L1016.56-14.64L1019.20-28.96L1015.84-28.96L1016-30.40L1019.44-30.40L1019.44-30.40Q1025.36-30.40 1028.16-30.88L1028.16-30.88L1029.28-31.12L1023.76-0.88L1023.76-0.88Q1026.16-1.12 1027.76-3.12L1027.76-3.12L1028.96-2.16"
            fill="#51cacc" stroke="none" stroke-width="none"
            transform="translate(-528.2000675201416,22.126529167340344)" style="fill: rgb(222, 157, 214);"></path>
        </g>
        <g class="path"
          style="transform: scale(1); transform-origin: 497.84px -20.7935px; animation: 1s linear -0.0253846s infinite normal forwards running beat-b097d979-0547-49bc-aab4-ddbc0a1d8439;">
          <path
            d="M1021.92-38.80L1021.92-38.80L1021.92-38.80Q1020.24-40.48 1020.24-42.88L1020.24-42.88L1020.24-42.88Q1020.24-45.28 1021.92-47L1021.92-47L1021.92-47Q1023.60-48.72 1026-48.72L1026-48.72L1026-48.72Q1028.40-48.72 1030.12-47L1030.12-47L1030.12-47Q1031.84-45.28 1031.84-42.88L1031.84-42.88L1031.84-42.88Q1031.84-40.48 1030.12-38.80L1030.12-38.80L1030.12-38.80Q1028.40-37.12 1026-37.12L1026-37.12L1026-37.12Q1023.60-37.12 1021.92-38.80"
            fill="#51cacc" stroke="none" stroke-width="none"
            transform="translate(-528.2000675201416,22.126529167340344)" style="fill: rgb(255, 112, 142);"></path>
        </g>
        <g class="path"
          style="transform: scale(1); transform-origin: 521px 6.92653px; animation: 1s linear 0s infinite normal forwards running beat-b097d979-0547-49bc-aab4-ddbc0a1d8439;">
          <path
            d="M1046.08 0.72L1046.08 0.72Q1039.92 0.72 1036.72-2.36L1036.72-2.36L1036.72-2.36Q1033.52-5.44 1033.52-10.12L1033.52-10.12L1033.52-10.12Q1033.52-14.80 1034.36-18.12L1034.36-18.12L1034.36-18.12Q1035.20-21.44 1037.12-24.52L1037.12-24.52L1037.12-24.52Q1039.04-27.60 1042.92-29.36L1042.92-29.36L1042.92-29.36Q1046.80-31.12 1052.60-31.12L1052.60-31.12L1052.60-31.12Q1058.40-31.12 1061.64-28.04L1061.64-28.04L1061.64-28.04Q1064.88-24.96 1064.88-19.60L1064.88-19.60L1064.88-19.60Q1064.88-10.48 1060.04-4.88L1060.04-4.88L1060.04-4.88Q1055.20 0.72 1046.08 0.72L1046.08 0.72zM1042.56-7.52L1042.56-7.52L1042.56-7.52Q1042.56-1.12 1046.28-1.12L1046.28-1.12L1046.28-1.12Q1050-1.12 1052.92-7.56L1052.92-7.56L1052.92-7.56Q1055.84-14 1055.84-22.88L1055.84-22.88L1055.84-22.88Q1055.84-29.60 1052.20-29.60L1052.20-29.60L1052.20-29.60Q1048.56-29.60 1045.56-23.48L1045.56-23.48L1045.56-23.48Q1042.56-17.36 1042.56-7.52"
            fill="#51cacc" stroke="none" stroke-width="none"
            transform="translate(-528.2000675201416,22.126529167340344)" style="fill: rgb(81, 202, 204);"></path>
        </g>
      </g>
    </g>
  </g>
  <style id="beat-b097d979-0547-49bc-aab4-ddbc0a1d8439" data-anikit="">
    @keyframes beat-b097d979-0547-49bc-aab4-ddbc0a1d8439 {
      0% {
        animation-timing-function: cubic-bezier(0.1028, 0.2484, 0.1372, 0.849);
        transform: scale(1);
      }

      34% {
        animation-timing-function: cubic-bezier(0.7116, 0.2095, 0.8159, 0.6876);
        transform: scale(1.2);
      }

      68% {
        animation-timing-function: cubic-bezier(0.1475, 0.2888, 0.294, 0.883);
        transform: scale(1.0268);
      }

      84% {
        animation-timing-function: cubic-bezier(0.8176, 0.2193, 0.867, 0.6889);
        transform: scale(1.0932);
      }

      100% {
        transform: scale(1);
      }
    }
  </style>
</svg>